# xmcd
#
# Track frame offsets:
#	150
#	14015
#	32015
#	48442
#	64172
#	85075
#	96795
#	113965
#	139212
#
# Disc length: 2106 seconds
#
# Revision: 0
# Processed by: cddbd v1.5.2PL0 Copyright (c) Steve Scherf et al.
# Submitted via: audiograbber 1.83.01
#
DISCID=77083809
DTITLE=Boz Scaggs - Boz Scaggs and Band
DYEAR=1971
DGENRE=Blues/Rock
TTITLE0=Monkey Time
TTITLE1=Runnin' Blue
TTITLE2=Up To You
TTITLE3=Love Anyway
TTITLE4=Flames Of Love
TTITLE5=Here To Stay
TTITLE6=Nothing Will Take Your Place
TTITLE7=Why Why
TTITLE8=You're So Good
EXTD=Special Import - Japan\nRecorded in 1971 - Sony BMG Entertainment
EXTT0=
EXTT1=
EXTT2=
EXTT3=
EXTT4=
EXTT5=
EXTT6=
EXTT7=
EXTT8=
PLAYORDER=
